<svg xmlns="http://www.w3.org/2000/svg" viewBox="0 0 400 250" width="400" height="250">
  <defs>
    <linearGradient id="bg1" x1="0%" y1="0%" x2="100%" y2="100%">
      <stop offset="0%" stop-color="#5B2A86"/>
      <stop offset="100%" stop-color="#8B4FC6"/>
    </linearGradient>
    <radialGradient id="glow1" cx="50%" cy="45%">
      <stop offset="0%" stop-color="#F8F6FB" stop-opacity="0.12"/>
      <stop offset="100%" stop-color="#F8F6FB" stop-opacity="0"/>
    </radialGradient>
  </defs>
  <rect width="400" height="250" fill="url(#bg1)" rx="12"/>
  <rect width="400" height="250" fill="url(#glow1)" rx="12"/>
  <!-- Geometric accent lines -->
  <line x1="0" y1="180" x2="400" y2="140" stroke="#F8F6FB" stroke-opacity="0.07" stroke-width="1"/>
  <line x1="0" y1="200" x2="400" y2="160" stroke="#F8F6FB" stroke-opacity="0.05" stroke-width="1"/>
  <!-- Crosshair / target icon -->
  <circle cx="200" cy="105" r="42" fill="none" stroke="#F8F6FB" stroke-width="3.5" opacity="0.9"/>
  <circle cx="200" cy="105" r="24" fill="none" stroke="#F8F6FB" stroke-width="2.5" opacity="0.7"/>
  <circle cx="200" cy="105" r="6" fill="#F8F6FB" opacity="0.95"/>
  <!-- Crosshair lines -->
  <line x1="200" y1="53" x2="200" y2="80" stroke="#F8F6FB" stroke-width="2.5" opacity="0.85" stroke-linecap="round"/>
  <line x1="200" y1="130" x2="200" y2="157" stroke="#F8F6FB" stroke-width="2.5" opacity="0.85" stroke-linecap="round"/>
  <line x1="148" y1="105" x2="175" y2="105" stroke="#F8F6FB" stroke-width="2.5" opacity="0.85" stroke-linecap="round"/>
  <line x1="225" y1="105" x2="252" y2="105" stroke="#F8F6FB" stroke-width="2.5" opacity="0.85" stroke-linecap="round"/>
  <!-- Corner brackets -->
  <polyline points="158,68 150,68 150,76" fill="none" stroke="#FF7A00" stroke-width="2" opacity="0.8" stroke-linecap="round" stroke-linejoin="round"/>
  <polyline points="242,68 250,68 250,76" fill="none" stroke="#FF7A00" stroke-width="2" opacity="0.8" stroke-linecap="round" stroke-linejoin="round"/>
  <polyline points="158,142 150,142 150,134" fill="none" stroke="#FF7A00" stroke-width="2" opacity="0.8" stroke-linecap="round" stroke-linejoin="round"/>
  <polyline points="242,142 250,142 250,134" fill="none" stroke="#FF7A00" stroke-width="2" opacity="0.8" stroke-linecap="round" stroke-linejoin="round"/>
  <!-- Text -->
  <text x="200" y="200" text-anchor="middle" font-family="Arial, Helvetica, sans-serif" font-weight="900" font-size="26" fill="#F8F6FB" letter-spacing="3">DAILY GODSENT</text>
  <text x="200" y="222" text-anchor="middle" font-family="Arial, Helvetica, sans-serif" font-weight="400" font-size="11" fill="#FF7A00" letter-spacing="5" opacity="0.9">DESTINY AWAITS</text>
</svg>